<?xml version="1.0" encoding="iso-8859-1"?>
<!-- Generator: Adobe Illustrator 19.0.0, SVG Export Plug-In . SVG Version: 6.00 Build 0)  -->
<svg xmlns="http://www.w3.org/2000/svg" xmlns:xlink="http://www.w3.org/1999/xlink" version="1.1" id="Capa_1" x="0px" y="0px" viewBox="0 0 512 512" style="enable-background:new 0 0 512 512;" xml:space="preserve" width="512px" height="512px">
<g>
	<g>
		<path d="M467,0C450.821,0,66.284,0,45,0C20.187,0,0,20.187,0,45v452c0,8.284,6.716,15,15,15h121c8.284,0,15-6.716,15-15v-15h210    v15c0,8.284,6.716,15,15,15h121c8.284,0,15-6.716,15-15V45C512,20.187,491.813,0,467,0z M121,482H30V45c0-8.271,6.729-15,15-15h46    v105c0,19.555,12.541,36.228,30,42.42V482z M241,452h-90V180h90V452z M361,452h-90V180h90V452z M376,150H136    c-8.271,0-15-6.729-15-15V30h270v105C391,143.271,384.271,150,376,150z M482,482h-91V177.42c17.459-6.192,30-22.865,30-42.42V30    h46c8.271,0,15,6.729,15,15V482z" fill="#FFFFFF"/>
	</g>
</g>
<g>
	<g>
		<path d="M436,240c-8.284,0-15,6.716-15,15s6.716,15,15,15s16-6.716,16-15S444.284,240,436,240z" fill="#FFFFFF"/>
	</g>
</g>
<g>
	<g>
		<path d="M436,300c-8.284,0-15,6.716-15,15s6.716,15,15,15s16-6.716,16-15S444.284,300,436,300z" fill="#FFFFFF"/>
	</g>
</g>
<g>
	<g>
		<path d="M236.606,94.393l-30-30c-5.857-5.858-15.355-5.858-21.213,0l-30,30c-5.858,5.858-5.858,15.355,0,21.213    c5.858,5.859,15.356,5.859,21.213,0L196,96.213l19.394,19.393c2.928,2.93,6.767,4.394,10.606,4.394s7.678-1.464,10.606-4.394    C242.464,109.748,242.464,100.251,236.606,94.393z" fill="#FFFFFF"/>
	</g>
</g>
<g>
	<g>
		<path d="M356.606,64.393c-5.857-5.858-15.355-5.858-21.213,0L316,83.787l-19.394-19.393c-5.857-5.858-15.355-5.858-21.213,0    c-5.858,5.858-5.858,15.355,0,21.213l30.001,29.999c2.928,2.93,6.767,4.394,10.606,4.394s7.678-1.464,10.606-4.394l30-30    C362.464,79.748,362.464,70.251,356.606,64.393z" fill="#FFFFFF"/>
	</g>
</g>
<g>
</g>
<g>
</g>
<g>
</g>
<g>
</g>
<g>
</g>
<g>
</g>
<g>
</g>
<g>
</g>
<g>
</g>
<g>
</g>
<g>
</g>
<g>
</g>
<g>
</g>
<g>
</g>
<g>
</g>
</svg>
