<?xml version="1.0" encoding="utf-8"?>
<!-- Generator: Adobe Illustrator 19.2.1, SVG Export Plug-In . SVG Version: 6.00 Build 0)  -->
<svg version="1.1" xmlns="http://www.w3.org/2000/svg" xmlns:xlink="http://www.w3.org/1999/xlink" x="0px" y="0px"
	 viewBox="0 0 469 469" style="enable-background:new 0 0 469 469;" xml:space="preserve">
<style type="text/css">
	.st0{fill:#FFFFFF;}
</style>
<g id="Layer_2">
</g>
<g id="Capa_1">
	<g>
		<g>
			<path class="st0" d="M13.5,469h442c7.5,0,13.5-6,13.5-13.5V243.6c0-7.5-6-13.5-13.5-13.5s-13.5,6-13.5,13.5V442H27V27h199.6
				c7.5,0,13.5-6,13.5-13.5S234.1,0,226.6,0L13.5,0C6,0,0,6,0,13.5l0,442C0,463,6,469,13.5,469z"/>
			<path class="st0" d="M293.4,189.1h162.1c7.5,0,13.5-6,13.5-13.5V13.5C469,6,463,0,455.5,0L293.4,0c-7.5,0-13.5,6-13.5,13.5v162.1
				C279.9,183,286,189.1,293.4,189.1z M306.9,27H442v135.1H306.9V27z"/>
			<path class="st0" d="M233.5,254.6v71.5c0,7.5,6,13.5,13.5,13.5s13.5-6,13.5-13.5V222c0-7.5-6-13.5-13.5-13.5H142.9
				c-7.5,0-13.5,6-13.5,13.5s6,13.5,13.5,13.5h71.5L85.6,364.3c-5.3,5.3-5.3,13.8,0,19.1c2.6,2.6,6.1,4,9.5,4s6.9-1.3,9.5-4
				L233.5,254.6z"/>
		</g>
	</g>
</g>
</svg>
