<?xml version="1.0" encoding="iso-8859-1"?>
<!-- Generator: Adobe Illustrator 19.0.0, SVG Export Plug-In . SVG Version: 6.00 Build 0)  -->
<svg xmlns="http://www.w3.org/2000/svg" xmlns:xlink="http://www.w3.org/1999/xlink" version="1.1" id="Capa_1" x="0px" y="0px" viewBox="0 0 470 470" style="enable-background:new 0 0 470 470;" xml:space="preserve" width="512px" height="512px">
<g>
	<path d="M401.17,68.83C356.784,24.444,297.771,0,235,0C172.229,0,113.215,24.444,68.83,68.83C24.444,113.216,0,172.229,0,235   s24.444,121.784,68.83,166.17C113.215,445.556,172.229,470,235,470c62.771,0,121.784-24.444,166.17-68.83S470,297.771,470,235   S445.556,113.216,401.17,68.83z M235,455c-121.309,0-220-98.691-220-220S113.691,15,235,15s220,98.691,220,220S356.309,455,235,455   z" fill="#FFFFFF"/>
	<path d="M135,106.5h30c4.142,0,7.5-3.357,7.5-7.5s-3.358-7.5-7.5-7.5h-30c-4.142,0-7.5,3.357-7.5,7.5S130.858,106.5,135,106.5z" fill="#FFFFFF"/>
	<path d="M162.13,121.066l-22.388,9.273c-3.827,1.585-5.644,5.972-4.059,9.799c1.196,2.889,3.989,4.632,6.932,4.632   c0.957,0,1.929-0.185,2.867-0.573l22.388-9.273c3.827-1.585,5.644-5.972,4.059-9.799S165.958,119.482,162.13,121.066z" fill="#FFFFFF"/>
	<path d="M139.742,67.66l22.389,9.274c0.938,0.39,1.911,0.573,2.867,0.573c2.943,0,5.736-1.743,6.932-4.632   c1.585-3.826-0.232-8.214-4.059-9.799l-22.389-9.274c-3.827-1.589-8.215,0.231-9.799,4.059   C134.098,61.688,135.915,66.075,139.742,67.66z" fill="#FFFFFF"/>
	<path d="M297.5,99c0,4.143,3.357,7.5,7.5,7.5h30c4.143,0,7.5-3.357,7.5-7.5s-3.357-7.5-7.5-7.5h-30   C300.857,91.5,297.5,94.857,297.5,99z" fill="#FFFFFF"/>
	<path d="M307.87,121.066c-3.823-1.588-8.213,0.232-9.799,4.059c-1.586,3.827,0.231,8.214,4.059,9.799l22.388,9.273   c0.938,0.39,1.91,0.573,2.867,0.573c2.943,0,5.735-1.744,6.932-4.632c1.586-3.827-0.231-8.214-4.059-9.799L307.87,121.066z" fill="#FFFFFF"/>
	<path d="M305.002,77.508c0.956,0,1.929-0.185,2.867-0.573l22.389-9.274c3.827-1.585,5.645-5.973,4.059-9.799   c-1.585-3.827-5.972-5.644-9.799-4.059l-22.389,9.274c-3.827,1.585-5.645,5.973-4.059,9.799   C299.267,75.765,302.059,77.508,305.002,77.508z" fill="#FFFFFF"/>
	<path d="M436.826,253.173c-1.371-1.591-3.345-2.533-5.443-2.6c-12.664-0.4-24.343-7.548-32.041-19.608   c-1.378-2.158-3.762-3.465-6.322-3.465s-4.944,1.307-6.321,3.464c-7.974,12.489-20.074,19.652-33.2,19.652   c-13.09,0-25.178-7.164-33.162-19.655c-1.378-2.155-3.759-3.46-6.316-3.461c-2.56,0-4.94,1.303-6.319,3.455   c-0.876,1.369-1.864,2.745-2.936,4.091c-2.581,3.239-2.047,7.958,1.193,10.539c2.189,1.743,5.054,2.065,7.476,1.092   c10.546,11.997,24.984,18.939,40.064,18.939c14.826,0,29.018-6.681,39.505-18.264c8.14,9.065,18.422,15.061,29.671,17.278   c-6.044,38.177-24.008,74.246-51.068,102.269c-2.877,2.979-2.794,7.728,0.186,10.605c1.456,1.405,3.333,2.104,5.209,2.104   c1.964,0,3.925-0.767,5.396-2.29c31.08-32.185,51.038-74.226,56.198-118.38C438.839,256.854,438.197,254.763,436.826,253.173z" fill="#FFFFFF"/>
	<path d="M350.043,386.096c-7.385,5.638-15.088,10.684-23.058,15.129l-4.73-86.385c-0.218-3.977-3.507-7.09-7.489-7.09h-23.227   l-9.048-179.128c-0.201-3.99-3.495-7.122-7.49-7.122h-2.5v-15h2.5c4.143,0,7.5-3.357,7.5-7.5s-3.357-7.5-7.5-7.5h-2.5V76.07   c0.818,0.291,1.661,0.432,2.494,0.432c2.751,0,5.4-1.52,6.714-4.147c1.853-3.705,0.351-8.21-3.354-10.063l-40-20   c-2.111-1.057-4.597-1.057-6.708,0l-40,20c-3.705,1.853-5.207,6.357-3.354,10.063c1.712,3.424,5.689,4.96,9.208,3.71V91.5H195   c-4.142,0-7.5,3.357-7.5,7.5s3.358,7.5,7.5,7.5h2.5v15H195c-3.995,0-7.289,3.132-7.49,7.122l-9.048,179.128h-22.365   c-3.987,0-7.277,3.119-7.489,7.101l-4.639,86.947c-50.435-27.552-87.283-77.382-96.648-137.163   c11.265-2.217,21.561-8.215,29.707-17.284c10.491,11.584,24.673,18.267,39.476,18.267c15.088,0,29.538-6.946,40.096-18.953   c2.413,0.955,5.257,0.634,7.436-1.098c3.244-2.576,3.785-7.294,1.208-10.538c-1.063-1.339-2.044-2.707-2.914-4.067   c-1.378-2.155-3.759-3.459-6.316-3.46c-2.559,0-4.94,1.303-6.319,3.456c-8,12.494-20.097,19.66-33.191,19.66   c-13.098,0-25.189-7.164-33.175-19.656c-1.378-2.155-3.761-3.46-6.319-3.46c-2.562,0.001-4.944,1.307-6.322,3.465   c-7.699,12.06-19.388,19.207-32.07,19.608c-2.098,0.066-4.073,1.009-5.443,2.6c-1.371,1.59-2.012,3.682-1.769,5.768   c5.786,49.505,29.545,95.214,66.902,128.705c14.81,13.278,31.309,24.198,48.943,32.575c0.247,0.136,0.502,0.258,0.766,0.366   C175.015,433.275,204.654,440,235,440c45.241,0,88.17-14.518,124.145-41.982c3.293-2.513,3.924-7.22,1.41-10.512   C358.042,384.213,353.335,383.579,350.043,386.096z M202.131,136.5h65.738l2.378,47.083h-70.495L202.131,136.5z M212.5,68.635   l22.5-11.25l22.5,11.25V91.5h-45V68.635z M212.5,106.5h45v15h-45V106.5z M195.858,260.666l55.414,0.001c4.142,0,7.5-3.358,7.5-7.5   s-3.357-7.5-7.5-7.5l-54.656-0.001l2.378-47.083h72.011l5.515,109.167h-83.04L195.858,260.666z M158.606,408.994l4.602-86.244   h144.458l4.698,85.809C288.24,419.384,262.068,425,235,425C207.925,425,182.06,419.299,158.606,408.994z" fill="#FFFFFF"/>
	<circle cx="229.5" cy="390.5" r="7.5" fill="#FFFFFF"/>
	<circle cx="199.5" cy="360.5" r="7.5" fill="#FFFFFF"/>
</g>
<g>
</g>
<g>
</g>
<g>
</g>
<g>
</g>
<g>
</g>
<g>
</g>
<g>
</g>
<g>
</g>
<g>
</g>
<g>
</g>
<g>
</g>
<g>
</g>
<g>
</g>
<g>
</g>
<g>
</g>
</svg>
