<?xml version="1.0" encoding="iso-8859-1"?>
<!-- Generator: Adobe Illustrator 19.0.0, SVG Export Plug-In . SVG Version: 6.00 Build 0)  -->
<svg xmlns="http://www.w3.org/2000/svg" xmlns:xlink="http://www.w3.org/1999/xlink" version="1.1" id="Capa_1" x="0px" y="0px" viewBox="0 0 512.032 512.032" style="enable-background:new 0 0 512.032 512.032;" xml:space="preserve" width="512px" height="512px">
<g>
	<g>
		<path d="M504.976,130.752c-4.416-3.008-10.048-3.584-14.912-1.6l-154.048,61.6l-26.048-10.4c-8.128-3.264-17.504,0.672-20.8,8.928    c-3.296,8.192,0.704,17.504,8.928,20.8l21.92,8.768v253.536l-128-51.2V167.648l10.048,4.032c8.128,3.264,17.504-0.672,20.8-8.928    c3.296-8.192-0.704-17.504-8.928-20.8l-31.68-12.704c0,0,0,0-0.032,0l-0.256-0.096c-3.808-1.536-8.064-1.536-11.872,0    l-0.288,0.096c0,0,0,0-0.032,0L10.064,193.152C4.016,195.584,0.016,201.44,0.016,208v288c0,5.312,2.656,10.272,7.04,13.248    c2.688,1.824,5.792,2.752,8.96,2.752c2.016,0,4.032-0.384,5.952-1.152l154.048-61.6l153.76,61.504c0,0,0,0,0.032,0l0.288,0.128    c3.808,1.536,8.064,1.536,11.872,0l0.288-0.128c0,0,0,0,0.032,0L502,446.88c6.016-2.464,10.016-8.32,10.016-14.88V144    C512.016,138.688,509.36,133.728,504.976,130.752z M160.016,421.152l-128,51.2V218.816l128-51.2V421.152z M480.016,421.184    l-128,51.2V218.848l128-51.2V421.184z" fill="#FFFFFF"/>
	</g>
</g>
<g>
	<g>
		<path d="M256.016,0c-35.296,0-64,28.704-64,64c0,29.728,20.48,54.56,48,61.728V288c0,8.832,7.168,16,16,16c8.832,0,16-7.168,16-16    V125.728c27.52-7.168,48-32,48-61.728C320.016,28.704,291.312,0,256.016,0z M256.016,96c-17.632,0-32-14.368-32-32    s14.368-32,32-32s32,14.368,32,32S273.648,96,256.016,96z" fill="#FFFFFF"/>
	</g>
</g>
<g>
</g>
<g>
</g>
<g>
</g>
<g>
</g>
<g>
</g>
<g>
</g>
<g>
</g>
<g>
</g>
<g>
</g>
<g>
</g>
<g>
</g>
<g>
</g>
<g>
</g>
<g>
</g>
<g>
</g>
</svg>
