<?xml version="1.0" encoding="iso-8859-1"?>
<!-- Generator: Adobe Illustrator 18.0.0, SVG Export Plug-In . SVG Version: 6.00 Build 0)  -->
<!DOCTYPE svg PUBLIC "-//W3C//DTD SVG 1.1//EN" "http://www.w3.org/Graphics/SVG/1.1/DTD/svg11.dtd">
<svg version="1.1" id="Capa_1" xmlns="http://www.w3.org/2000/svg" xmlns:xlink="http://www.w3.org/1999/xlink" x="0px" y="0px"
	 viewBox="0 0 492.491 492.491" style="enable-background:new 0 0 492.491 492.491;" xml:space="preserve">
<g id="XMLID_250_">
	<path id="XMLID_254_" d="M72.64,209.736c3.479,3.497,9.157,3.497,12.635,0l83.945-83.943l0.018,39.264
		c0,4.94,3.998,8.946,8.941,8.946h15.109c4.943,0,8.943-4.005,8.943-8.946V78.391c0-2.371-0.947-4.651-2.627-6.329
		c-1.67-1.675-3.945-2.619-6.316-2.619l-86.646,0.018c-4.955,0-8.953,4.004-8.953,8.945v15.106c0,4.942,3.998,8.947,8.953,8.947
		h39.234l-83.943,83.934c-3.479,3.499-3.479,9.157,0,12.655L72.64,209.736z"/>
	<path id="XMLID_251_" d="M483.546,0.017h-80.602c-4.951,0-8.951,4.007-8.951,8.947v80.588c0,4.943-4.001,8.948-8.945,8.948h-80.611
		c-4.944,0-8.942,4.007-8.942,8.948v80.604c0,4.94-3.999,8.948-8.943,8.948h-80.612c-4.943,0-8.942,4.004-8.942,8.946v80.599
		c0,4.94-4,8.945-8.954,8.945h-80.6c-4.947,0-8.943,4.008-8.943,8.948v80.597c0,4.943-4,8.948-8.953,8.948H8.942
		C3.998,393.982,0,397.99,0,402.93v80.596c0,4.941,3.998,8.948,8.942,8.948h452.6c17.103,0,30.949-13.856,30.949-30.944
		c0-91.43,0-166.94,0-264.529c0-144.542,0-55.183,0-188.037C492.491,4.024,488.493,0.017,483.546,0.017z M414.114,258.785
		l-83.93,83.926l39.193-0.027c2.371-0.006,4.639,0.936,6.32,2.621c1.678,1.677,2.625,3.95,2.625,6.328v15.123
		c0,4.941-4.002,8.945-8.945,8.945l-86.639,0.017c-2.368,0-4.639-0.944-6.318-2.62c-1.688-1.678-2.625-3.958-2.625-6.328v-86.649
		c0-4.935,3.998-8.94,8.943-8.948h15.125c2.369-0.008,4.648,0.936,6.316,2.619c1.682,1.678,2.628,3.95,2.628,6.329l-0.009,39.287
		l83.953-83.983c1.68-1.675,3.947-2.62,6.318-2.62c2.369,0,4.646,0.944,6.332,2.62l10.711,10.704
		c1.68,1.678,2.608,3.959,2.608,6.329C416.723,254.827,415.794,257.107,414.114,258.785z"/>
</g>
<g>
</g>
<g>
</g>
<g>
</g>
<g>
</g>
<g>
</g>
<g>
</g>
<g>
</g>
<g>
</g>
<g>
</g>
<g>
</g>
<g>
</g>
<g>
</g>
<g>
</g>
<g>
</g>
<g>
</g>
</svg>
